<svg xmlns="http://www.w3.org/2000/svg" viewBox="0 0 100 100" fill="none">
  <circle cx="50" cy="50" r="50" fill="#34A853" />
  <g transform="translate(15, 15) scale(0.7)">
    <!-- House outline -->
    <path d="M25 35 L50 10 L75 35 V75 H25 Z" fill="#fff" />
    <!-- Chimney -->
    <rect x="60" y="20" width="8" height="15" fill="#fff" />
    <circle cx="64" cy="15" r="4" fill="#fff" />
    <!-- Wallet inside the house -->
    <rect x="40" y="50" width="20" height="12" rx="2" fill="#34A853" />
    <rect x="42" y="52" width="16" height="4" fill="#fff" />
    <!-- Hearts above the wallet -->
    <path d="M45 45 C44 43, 42 43, 41 45 C40 47, 45 50, 45 50 C45 50, 50 47, 49 45 C48 43, 46 43, 45 45 Z" fill="#34A853" />
    <path d="M55 45 C54 43, 52 43, 51 45 C50 47, 55 50, 55 50 C55 50, 60 47, 59 45 C58 43, 56 43, 55 45 Z" fill="#34A853" />
    <!-- Windows -->
    <rect x="30" y="40" width="8" height="8" fill="#34A853" stroke="#fff" stroke-width="1" />
    <rect x="62" y="40" width="8" height="8" fill="#34A853" stroke="#fff" stroke-width="1" />
    <!-- Flowers near the base -->
    <circle cx="32" cy="75" r="2" fill="#FF6347" />
    <circle cx="68" cy="75" r="2" fill="#FF6347" />
    <path d="M32 75 L32 73" stroke="#34A853" stroke-width="1" />
    <path d="M68 75 L68 73" stroke="#34A853" stroke-width="1" />
    <!-- Heart above the chimney -->
    <path d="M64 18 C63 16, 61 16, 60 18 C59 20, 64 23, 64 23 C64 23, 69 20, 68 18 C67 16, 65 16, 64 18 Z" fill="#34A853" />
    <!-- Sun above the house -->
    <circle cx="50" cy="5" r="4" fill="#FFD700" />
    <path d="M50 0 L50 3" stroke="#FFD700" stroke-width="1" />
    <path d="M50 7 L50 10" stroke="#FFD700" stroke-width="1" />
    <path d="M46 5 L48 5" stroke="#FFD700" stroke-width="1" />
    <path d="M52 5 L54 5" stroke="#FFD700" stroke-width="1" />
  </g>
</svg>